<?xml version="1.0" encoding="iso-8859-1"?>
<!-- Generator: Adobe Illustrator 22.1.0, SVG Export Plug-In . SVG Version: 6.00 Build 0)  -->
<svg xmlns="http://www.w3.org/2000/svg" xmlns:xlink="http://www.w3.org/1999/xlink" version="1.1" id="Layer_1_1_" x="0px" y="0px" viewBox="0 0 64 64" style="enable-background:new 0 0 64 64;" xml:space="preserve" width="512" height="512">
<linearGradient id="SVGID_1_" gradientUnits="userSpaceOnUse" x1="32.021" y1="63.2871" x2="32.021" y2="1">
	<stop offset="0" style="stop-color:#9F2FFF"/>
	<stop offset="1" style="stop-color:#0BB1D3"/>
</linearGradient>
<path style="fill:url(#SVGID_1_);" d="M10.895,44l-1.89,18.9l1.99,0.199l1.91-19.1H13v19h2V44h0.095l1.91,19.1l1.99-0.199L17.105,44  h0.075l3.839,19.196l1.961-0.393L19.22,44h0.036l5.786,19.287l1.916-0.574L21,42.853V38h-2v-4h-2V1h-6v33H9v4H7v4.853l-5.958,19.86  l1.916,0.574L8.744,44H8.78L5.02,62.804l1.961,0.393L10.82,44H10.895z M13,3h2v31h-2V3z M11,36h6v2h-6V36z M9,40h10v2H9V40z   M52.767,45.023l-1.093-1.334C50.275,41.98,48.208,41,46,41s-4.275,0.98-5.674,2.688l-1.093,1.336  c-4.063,4.966-7.153,10.571-9.182,16.659L29.613,63h32.774l-0.438-1.316C59.919,55.596,56.83,49.99,52.767,45.023z M32.407,61  c1.947-5.35,4.76-10.292,8.374-14.709l1.093-1.336C42.891,43.713,44.395,43,46,43s3.109,0.713,4.126,1.956l1.093,1.334  c3.614,4.418,6.427,9.36,8.374,14.71H32.407z M37,55h2v2h-2V55z M51,52h2v2h-2V52z M46,57h2v2h-2V57z M42,50h2v2h-2V50z M33,28  c0,3.859,3.14,7,7,7h4v-1c0-3.859-3.14-7-7-7h-4V28z M37,29c2.415,0,4.435,1.721,4.899,4H40c-2.415,0-4.435-1.721-4.899-4H37z   M31,14h-4c-3.86,0-7,3.141-7,7v1h4c3.86,0,7-3.141,7-7V14z M24,20h-1.899c0.464-2.279,2.485-4,4.899-4h1.899  C28.435,18.279,26.415,20,24,20z M48,8v4h1c3.86,0,7-3.141,7-7V1h-1C51.14,1,48,4.141,48,8z M54,5c0,2.415-1.721,4.435-4,4.899V8  c0-2.415,1.721-4.435,4-4.899V5z M52,31v1h4c3.86,0,7-3.141,7-7v-1h-4C55.14,24,52,27.141,52,31z M56,30h-1.899  c0.464-2.279,2.485-4,4.899-4h1.899C60.435,28.279,58.415,30,56,30z M56,14h2v2h-2V14z M27,38h2v2h-2V38z M34,5h2v2h-2V5z M60,41v2  h-2v-2H60z"/>
</svg>
