<svg viewBox="0 0 50 50" preserveAspectRatio= "meet" fill="none" xmlns="http://www.w3.org/2000/svg">
<path d="M14.5161 25C8.73551 25 4.03226 29.7032 4.03226 35.4839C4.03226 41.2645 8.73551 45.9677 14.5161 45.9677C20.2967 45.9677 25 41.2645 25 35.4839C25 29.7032 20.2967 25 14.5161 25ZM14.5161 44.3548C9.62505 44.3548 5.64516 40.3749 5.64516 35.4839C5.64516 30.5928 9.62505 26.6129 14.5161 26.6129C19.4072 26.6129 23.3871 30.5928 23.3871 35.4839C23.3871 40.3749 19.4072 44.3548 14.5161 44.3548Z" fill= currentColor/>
<path d="M13.104 30.0163C13.562 29.8986 14.0381 29.8387 14.5161 29.8387V28.2258C13.9022 28.2258 13.2919 28.3026 12.7024 28.455L13.104 30.0163Z" fill= currentColor/>
<path d="M7.25806 35.4839H8.87097C8.87097 33.4331 9.98693 31.5394 11.7821 30.5436L10.9993 29.1331C8.6918 30.4136 7.25806 32.8468 7.25806 35.4839Z" fill= currentColor/>
<path d="M1.6129 19.3548H3.22581V20.9677H1.6129V19.3548Z" fill= currentColor/>
<path d="M0 20.9677H1.6129V22.5806H0V20.9677Z" fill= currentColor/>
<path d="M1.6129 22.5806H3.22581V24.1936H1.6129V22.5806Z" fill= currentColor/>
<path d="M3.22581 20.9677H4.83871V22.5806H3.22581V20.9677Z" fill= currentColor/>
<path d="M20.1613 14.5161H21.7742V16.129H20.1613V14.5161Z" fill= currentColor/>
<path d="M18.5484 16.129H20.1613L20.1613 17.7419H18.5484V16.129Z" fill= currentColor/>
<path d="M20.1613 17.7419L21.7742 17.7419V19.3548H20.1613L20.1613 17.7419Z" fill= currentColor/>
<path d="M21.7742 16.129H23.3871V17.7419L21.7742 17.7419V16.129Z" fill= currentColor/>
<path d="M50 19.3548V16.129C50 15.2395 49.2766 14.5161 48.3871 14.5161H46.4663L44.8534 11.2903H41.129V9.06116L42.8372 5.64516L41.9115 3.79363C41.7847 1.683 40.0442 0 37.9032 0C35.7623 0 34.0218 1.683 33.895 3.79363L32.9692 5.64516L34.6774 9.06116V11.2903H30.9531L29.3402 14.5161H27.4194C26.5298 14.5161 25.8065 15.2395 25.8065 16.129V19.3548C25.8065 20.2444 26.5298 20.9677 27.4194 20.9677H28.0805L27.6741 23.408C27.4154 24.9614 27.1918 26.5298 26.987 28.0919C24.453 23.8348 19.8187 20.9677 14.5161 20.9677C6.51225 20.9677 0 27.48 0 35.4839C0 43.4877 6.51225 50 14.5161 50C19.0863 50 23.1646 47.8716 25.8273 44.5596C25.8226 45.0306 25.8065 45.4976 25.8065 45.9677C25.8065 48.191 27.6155 50 29.8387 50H45.9677C48.191 50 50 48.191 50 45.9677C50 38.4297 49.3719 30.8405 48.1331 23.408L47.7259 20.9677H48.3871C49.2766 20.9677 50 20.2444 50 19.3548ZM35.9824 8.06452L34.7727 5.64516L35.1759 4.83871H37.0968V6.45161H38.7097V4.83871H40.6305L41.0337 5.64516L39.8241 8.06452H35.9824ZM37.9032 1.6129C38.953 1.6129 39.8402 2.28941 40.1741 3.22581H35.6331C35.9662 2.28941 36.8534 1.6129 37.9032 1.6129ZM36.2903 9.67742H39.5161V11.2903H36.2903V9.67742ZM31.9501 12.9032H43.8563L44.6628 14.5161H31.1437L31.9501 12.9032ZM27.4194 16.129H48.3871L48.3879 19.3548H27.4194V16.129ZM14.5161 48.3871C7.40179 48.3871 1.6129 42.5982 1.6129 35.4839C1.6129 28.3695 7.40179 22.5806 14.5161 22.5806C21.6305 22.5806 27.4194 28.3695 27.4194 35.4839C27.4194 42.5982 21.6305 48.3871 14.5161 48.3871ZM46.5419 23.6734C47.7661 31.0177 48.3871 38.5195 48.3871 45.9677C48.3871 47.3015 47.3015 48.3871 45.9677 48.3871H29.8387C28.505 48.3871 27.4194 47.3015 27.4194 45.9677C27.4194 44.6356 27.4394 43.2944 27.4792 41.98C28.4636 40.0225 29.0323 37.8209 29.0323 35.4839C29.0323 33.8603 28.7523 32.3041 28.2589 30.8452L28.2782 30.7353C28.5444 28.3774 28.8767 26.0018 29.2654 23.6734L29.7155 20.9677H46.091L46.5419 23.6734Z" fill= currentColor/>
<path d="M33.0645 46.7742H42.7419C44.0756 46.7742 45.1613 45.6886 45.1613 44.3548V29.8387C45.1613 25.8372 41.9056 22.5806 37.9032 22.5806C33.9009 22.5806 30.6452 25.8372 30.6452 29.8387V44.3548C30.6452 45.6886 31.7308 46.7742 33.0645 46.7742ZM32.2581 29.8387C32.2581 26.7259 34.7912 24.1935 37.9032 24.1935C41.0152 24.1935 43.5484 26.7259 43.5484 29.8387V44.3548C43.5484 44.799 43.1869 45.1613 42.7419 45.1613H33.0645C32.6196 45.1613 32.2581 44.799 32.2581 44.3548V29.8387Z" fill= currentColor/>
<path d="M33.871 29.0323H41.9355V30.6452H33.871V29.0323Z" fill= currentColor/>
<path d="M37.0968 32.2581H38.7097V33.871H37.0968V32.2581Z" fill= currentColor/>
<path d="M40.3226 32.2581H41.9355V33.871H40.3226V32.2581Z" fill= currentColor/>
<path d="M33.871 32.2581H35.4839V33.871H33.871V32.2581Z" fill= currentColor/>
<path d="M33.871 35.4839H41.9355V37.0968H33.871V35.4839Z" fill= currentColor/>
<path d="M33.871 38.7097H41.9355V40.3226H33.871V38.7097Z" fill= currentColor/>
<path d="M33.871 41.9355H41.9355V43.5484H33.871V41.9355Z" fill= currentColor/>
</svg>
