<svg viewBox="0 0 44 50" preserveAspectRatio= "meet" fill="none" xmlns="http://www.w3.org/2000/svg" >
<path d="M43.203 45.7653C42.9243 43.533 41.6571 41.5886 39.7276 40.4305C38.9644 39.9733 38.312 39.3322 37.8402 38.5766L35.7193 35.183C34.8905 33.8564 33.4614 33.0645 31.8966 33.0645C30.3857 33.0645 28.9838 33.8154 28.1467 35.0716L25.1485 39.5693C25.1114 39.6248 25.0669 39.676 25.0276 39.7299L24.5346 34.3112C24.3436 32.2218 22.6177 30.6452 20.5177 30.6452H15.5443L15.3994 29.7718V2.41935C15.3994 1.08564 14.3137 0 12.98 0C11.6459 0 10.5607 1.08564 10.5607 2.41935V29.7718L10.4154 30.6452H5.44197C3.34197 30.6452 1.61605 32.2218 1.42665 34.312L0 50H43.7323L43.203 45.7653ZM20.5177 32.2581C21.7773 32.2581 22.813 33.2039 22.9268 34.4589L23.5316 41.1137C23.5257 41.1168 23.5202 41.1219 23.5147 41.1251C22.9532 41.4622 22.4582 41.8823 22.025 42.3556L21.2548 33.871H16.0822L15.8136 32.2581H20.5177ZM13.7865 29.0323H12.1736V6.45161H13.7865V29.0323ZM13.9097 30.6452L14.4476 33.871H11.512L12.0499 30.6452H13.9097ZM12.98 1.6129C13.4242 1.6129 13.7865 1.97518 13.7865 2.41935V4.83871H12.1736V2.41935C12.1736 1.97518 12.5354 1.6129 12.98 1.6129ZM3.03325 34.4589C3.14666 33.2039 4.18229 32.2581 5.44197 32.2581H10.146L9.87746 33.871H4.70561L3.38568 48.3871H1.76608L3.03325 34.4589ZM5.00567 48.3871L6.17912 35.4839H19.7821L20.6216 44.7234C20.3798 45.422 20.2381 46.1587 20.2381 46.9144V48.3871H5.00567ZM21.851 48.3871V46.9144C21.851 45.1196 22.8063 43.4314 24.3452 42.508C25.1969 41.9969 25.9388 41.2905 26.4889 40.4643L29.4871 35.967C30.0258 35.1598 30.9259 34.6774 31.8958 34.6774C32.9007 34.6774 33.8186 35.1862 34.351 36.0387L36.4719 39.4323C37.0783 40.4017 37.917 41.2259 38.8975 41.8146C40.3994 42.7152 41.3846 44.228 41.6024 45.9654L41.9048 48.3871H21.851Z" fill= currentColor />
<path d="M32.3349 41.9355H33.9478V43.5484H32.3349V41.9355Z" fill=currentColor/>
<path d="M25.0768 45.1613H26.6897V46.7742H25.0768V45.1613Z" fill=currentColor/>
<path d="M30.7219 37.0968H32.3349V38.7097H30.7219V37.0968Z" fill=currentColor/>
<path d="M37.98 45.1613H39.5929V46.7742H37.98V45.1613Z" fill=currentColor/>
</svg>
