<svg viewBox="0 0 31 50" preserveAspectRatio= "meet" fill="none" xmlns="http://www.w3.org/2000/svg">
<path d="M30.1321 39.4614L29.0508 36.2171L29.6725 31.8678C29.7832 31.0952 29.8387 30.3073 29.8387 29.5249C29.8387 26.9677 29.2339 24.4066 28.0903 22.1184C27.5186 20.9768 26.5613 20.0621 25.3954 19.5435L20.1613 17.2178V14.6461L24.0821 2.8848C24.1565 2.65956 24.1935 2.42723 24.1935 2.19451C24.1935 0.984832 23.2087 0 21.999 0H11.7888C10.6248 0 9.67742 0.946636 9.67742 2.11142C9.67742 2.43707 9.75499 2.76351 9.8999 3.0557L10.3886 4.03226H10.0606C8.51539 4.03226 7.25806 5.28958 7.25806 6.83476C7.25806 7.22971 7.33958 7.61286 7.49905 7.97355L10.4839 14.6878V17.2178L5.24981 19.5442C4.08384 20.0628 3.12658 20.9776 2.55481 22.1195C1.41129 24.4074 0.806452 26.9677 0.806452 29.5249C0.806452 30.3073 0.861974 31.0945 0.972625 31.867L1.5944 36.2163L0.513089 39.4606C0.172474 40.4805 0 41.5437 0 42.6187C0 44.4281 0.491825 46.2048 1.4235 47.7563C2.25318 49.1404 3.77158 50 5.38566 50H25.2607C26.8744 50 28.3928 49.1404 29.2225 47.7563C30.1533 46.2048 30.6452 44.4281 30.6452 42.6187C30.6452 41.5437 30.4727 40.4805 30.1321 39.4614ZM8.87097 6.83476C8.87097 6.17912 9.40414 5.64516 10.0606 5.64516H11.195L12.9887 9.23127L14.4315 8.50948L11.3435 2.33391C11.308 2.26539 11.2903 2.18781 11.2903 2.11142C11.2903 1.83617 11.5136 1.6129 11.7888 1.6129H19.0839L17.775 6.06296L19.3218 6.51777L20.7646 1.6129H21.999C22.32 1.6129 22.5806 1.87358 22.5806 2.19451C22.5806 2.25633 22.57 2.32012 22.5515 2.3784L18.774 13.7097H17.2064L18.563 9.09857L17.0162 8.64337L15.5258 13.7097H11.8144L8.97335 7.31792C8.90562 7.16513 8.87097 7.0025 8.87097 6.83476ZM18.5484 15.3226V16.9355H12.0968V15.3226H18.5484ZM27.8395 46.9258C27.2993 47.8275 26.3105 48.3871 25.2595 48.3871H5.38566C4.33468 48.3871 3.3467 47.8275 2.80644 46.9258C2.02597 45.6259 1.6129 44.1363 1.6129 42.6187C1.6129 41.7169 1.75821 40.8266 2.04212 39.9717L2.5686 38.3927L3.40655 40.0686L6.00389 41.8L6.89855 40.458L4.65718 38.9637L3.19903 36.047L2.56938 31.6387C2.46936 30.9421 2.41935 30.2305 2.41935 29.5249C2.41935 27.217 2.96513 24.9047 3.99761 22.8401C4.40162 22.0321 5.0797 21.3848 5.90466 21.0178L11.4612 18.5484H19.1839L24.7405 21.0178C25.5655 21.3855 26.2435 22.0321 26.6476 22.8401C27.68 24.9055 28.2258 27.217 28.2258 29.5249C28.2258 30.2305 28.1758 30.9421 28.075 31.6387L27.7919 33.6193L26.6129 31.2614V28.2258H25V31.6418L27.4792 36.6006L28.6023 39.9717C28.887 40.8266 29.0323 41.7169 29.0323 42.6187C29.0323 44.1363 28.6192 45.6259 27.8395 46.9258Z" fill= currentColor/>
<path d="M22.5106 34.8298C22.5515 34.5128 22.5806 34.1943 22.5806 33.871C22.5806 29.8686 19.3249 26.6129 15.3226 26.6129C11.3203 26.6129 8.06452 29.8686 8.06452 33.871C8.06452 37.8733 11.3203 41.129 15.3226 41.129V39.5161C12.2106 39.5161 9.67742 36.983 9.67742 33.871C9.67742 30.759 12.2106 28.2258 15.3226 28.2258C18.4346 28.2258 20.9677 30.759 20.9677 33.871C20.9677 34.338 20.9055 34.7952 20.7945 35.2405L19.2395 32.6491L17.8565 33.4792L20.7508 38.3025L25.504 34.4998L24.496 33.2401L22.5106 34.8298Z" fill= currentColor/>
</svg>
