<svg viewBox="0 0 50 50" preserveAspectRatio= "meet" fill="none" xmlns="http://www.w3.org/2000/svg">
<path d="M18.5484 16.9355C18.5484 13.5596 19.9896 10.4209 22.2211 8.9387L21.328 7.59514C18.6185 9.39508 16.9355 12.9741 16.9355 16.9355H18.5484Z" fill= currentColor/>
<path d="M25 8.06452V6.45161C24.3759 6.45161 23.7541 6.54454 23.1524 6.72726L23.6218 8.27007C24.0719 8.13382 24.5346 8.06452 25 8.06452Z" fill= currentColor/>
<path d="M41.129 4.83871H30.3018C28.7192 3.81214 26.9161 3.22581 25 3.22581C23.0839 3.22581 21.2808 3.81214 19.6982 4.83871H8.87097C7.98143 4.83871 7.25806 5.56208 7.25806 6.45161V9.67742C7.25806 10.567 7.98143 11.2903 8.87097 11.2903H8.99422L9.26277 12.9032H6.45161V14.5161H9.53211L10.8524 22.4369C11.1194 24.0388 12.2992 25.2654 13.805 25.6596C13.7428 25.9687 13.7097 26.2873 13.7097 26.6129C13.7097 26.8878 13.738 27.1563 13.7821 27.4194H13.7097V28.2258C13.7097 32.6152 16.1999 36.4797 19.9935 38.3443L17.7758 45.7362L17.7419 50H32.2581V45.9677L30.0041 38.345C33.7985 36.4813 36.2903 32.616 36.2903 28.2258V27.4194H36.2179C36.262 27.1563 36.2903 26.8878 36.2903 26.6129C36.2903 26.2873 36.2572 25.9687 36.195 25.6596C37.7008 25.2654 38.8806 24.0388 39.1475 22.4369L41.0058 11.2903H41.129C42.0186 11.2903 42.7419 10.567 42.7419 9.67742V6.45161C42.7419 5.56208 42.0186 4.83871 41.129 4.83871ZM34.6774 16.9355C34.6774 18.8099 34.3104 20.6429 33.6469 22.3066C32.9869 21.9687 32.2427 21.7742 31.4516 21.7742H18.5484C17.7581 21.7742 17.0131 21.9687 16.3531 22.3066C15.6896 20.6429 15.3226 18.8099 15.3226 16.9355C15.3226 10.2653 19.6636 4.83871 25 4.83871C30.3364 4.83871 34.6774 10.2653 34.6774 16.9355ZM17.2257 23.6773C17.0426 24.0821 16.9355 24.5275 16.9355 25C16.9355 26.7791 18.3822 28.2258 20.1613 28.2258H29.8387C31.6178 28.2258 33.0645 26.7791 33.0645 25C33.0645 24.5275 32.9574 24.0821 32.7743 23.6773C33.8934 24.1845 34.6774 25.3064 34.6774 26.6129C34.6774 28.392 33.2307 29.8387 31.4516 29.8387H18.5484C16.7693 29.8387 15.3226 28.392 15.3226 26.6129C15.3226 25.3064 16.1066 24.1845 17.2257 23.6773ZM31.4516 25C31.4516 25.8895 30.7282 26.6129 29.8387 26.6129H20.1613C19.2717 26.6129 18.5484 25.8895 18.5484 25C18.5484 24.1105 19.2717 23.3871 20.1613 23.3871H29.8387C30.7282 23.3871 31.4516 24.1105 31.4516 25ZM8.87097 6.45161H17.7396C16.8402 7.37187 16.0668 8.46302 15.4387 9.67742H8.87097V6.45161ZM12.4437 22.1719L11.1671 14.5161H12.9032V12.9032H10.8985L10.63 11.2903H14.7233C14.0782 13.0147 13.7097 14.9217 13.7097 16.9355C13.7097 19.167 14.1629 21.3631 15.0111 23.3217C14.7748 23.5749 14.5669 23.8533 14.3885 24.1534C13.401 23.9726 12.6138 23.1953 12.4437 22.1719ZM27.2347 37.6445L27.6048 39.2137C27.912 39.1413 28.212 39.0558 28.5081 38.9597L30.3675 45.1613H29.0323V46.7742H30.6452V48.3871H19.3548V46.7742H27.4193V45.1613H19.6324L21.4926 38.9597C21.788 39.0558 22.0888 39.1413 22.396 39.2137L22.7661 37.6445C19.1178 36.7821 16.3929 33.9509 15.5797 30.425C16.3999 31.0661 17.4289 31.4516 18.5484 31.4516H31.4516C32.5711 31.4516 33.6 31.0661 34.4211 30.425C33.6079 33.9517 30.8822 36.7821 27.2347 37.6445ZM37.5563 22.1719C37.3854 23.1953 36.5983 23.9726 35.6115 24.1534C35.4331 23.8541 35.2252 23.5749 34.9889 23.3217C35.8371 21.3631 36.2903 19.167 36.2903 16.9355C36.2903 14.9217 35.9217 13.0147 35.2767 11.2903H39.37L37.5563 22.1719ZM41.129 9.67742H34.5605C33.9332 8.46302 33.1598 7.37187 32.2596 6.45161H41.129V9.67742Z" fill= currentColor/>
<path d="M4.26853 21.204L5.4089 22.3444L6.45162 21.3017V26.6129H8.06452V21.3017L9.10724 22.3444L10.2476 21.204L7.25807 18.2145L4.26853 21.204Z" fill= currentColor/>
<path d="M6.45161 28.2258H8.06451V29.8387H6.45161V28.2258Z" fill= currentColor/>
<path d="M37.9032 32.2581H39.5161V33.871H37.9032V32.2581Z" fill= currentColor/>
<path d="M36.2903 33.871L37.9032 33.871V35.4839H36.2903V33.871Z" fill= currentColor/>
<path d="M37.9032 35.4839H39.5161V37.0968H37.9032V35.4839Z" fill= currentColor/>
<path d="M39.5161 33.871L41.129 33.871V35.4839H39.5161V33.871Z" fill= currentColor/>
<path d="M46.7742 45.1613H48.3871V46.7742H46.7742V45.1613Z" fill= currentColor/>
<path d="M45.1613 46.7742L46.7742 46.7742L46.7742 48.3871H45.1613V46.7742Z" fill= currentColor/>
<path d="M46.7742 48.3871L48.3871 48.3871V50H46.7742L46.7742 48.3871Z" fill= currentColor/>
<path d="M48.3871 46.7742L50 46.7742V48.3871L48.3871 48.3871V46.7742Z" fill= currentColor/>
<path d="M44.3548 0H45.9677V1.6129H44.3548V0Z" fill= currentColor/>
<path d="M42.7419 1.6129L44.3548 1.6129L44.3548 3.2258H42.7419V1.6129Z" fill= currentColor/>
<path d="M44.3548 3.2258L45.9677 3.22581V4.83871H44.3548L44.3548 3.2258Z" fill= currentColor/>
<path d="M45.9677 1.6129L47.5806 1.6129V3.2258L45.9677 3.22581V1.6129Z" fill= currentColor/>
<path d="M1.6129 34.6774H3.2258V36.2903H1.6129V34.6774Z" fill= currentColor/>
<path d="M0 36.2903L1.6129 36.2903L1.6129 37.9032H0V36.2903Z" fill= currentColor/>
<path d="M1.6129 37.9032L3.2258 37.9032V39.5161H1.6129L1.6129 37.9032Z" fill= currentColor/>
<path d="M3.2258 36.2903L4.83871 36.2903V37.9032L3.2258 37.9032V36.2903Z" fill= currentColor/>
<path d="M1.6129 0H3.2258V1.6129H1.6129V0Z" fill= currentColor/>
<path d="M0 1.6129L1.6129 1.6129L1.6129 3.2258H0V1.6129Z" fill= currentColor/>
<path d="M1.6129 3.2258L3.2258 3.22581V4.83871H1.6129L1.6129 3.2258Z" fill= currentColor/>
<path d="M3.2258 1.6129L4.83871 1.6129V3.2258L3.2258 3.22581V1.6129Z" fill= currentColor/>
</svg>
